<svg width="425" height="98" viewBox="0 0 425 98" fill="none" xmlns="http://www.w3.org/2000/svg">
<path d="M24.4643 54.4015L4.87345 45.1895C4.38804 44.9648 3.86381 44.8525 3.33957 44.8337C1.2038 49.5146 0 54.6636 0 60.1122C0 81.0264 17.5716 97.9712 39.2594 97.9712L41.9583 97.7091C45.3755 97.2972 48.618 96.361 51.5886 95.0503L44.8901 91.8486C29.9979 84.846 22.1344 69.4365 24.4643 54.4015Z" fill="url(#paint0_linear_1663_1118)"/>
<path d="M79.1798 5.92581L69.9183 0.758109C67.2 -0.7585 63.7052 0.0653369 62.0354 2.64919L49.7255 21.6161C49.0848 22.6085 47.8616 23.1328 46.6578 22.9081C44.2696 22.4587 41.7843 22.234 39.2603 22.234C34.6975 22.234 30.3288 22.983 26.2515 24.3685C18.0773 27.1396 11.1651 32.4384 6.48584 39.2912C6.87416 39.4223 7.26248 39.5346 7.65081 39.7031L25.9796 48.3159C26.4844 46.8555 27.1058 45.4138 27.8242 43.9908C29.3969 40.864 31.4356 37.9993 33.8626 35.4529C43.4347 25.417 58.2104 21.6349 71.5298 25.3421L80.7331 11.9735C82.0922 9.93265 81.3932 7.16156 79.1798 5.92581Z" fill="url(#paint1_linear_1663_1118)"/>
<path d="M55.2578 48.9894L67.82 30.7527C57.2965 28.5246 45.9769 31.7638 38.5017 39.6089C36.5018 41.706 34.8126 44.1026 33.4923 46.6864C32.7739 48.1094 32.172 49.5699 31.7061 51.049L48.4233 58.9129L55.2578 48.9894Z" fill="url(#paint2_linear_1663_1118)"/>
<path d="M30.4829 57.228C29.4732 69.0613 35.9388 80.8572 47.6661 86.3619L47.8214 86.4368C47.8603 86.4555 47.8797 86.4742 47.9185 86.4929L57.9955 91.3049C63.2961 87.3542 67.2958 81.9431 69.3733 75.7643L49.8601 66.3464L30.4829 57.228Z" fill="url(#paint3_linear_1663_1118)"/>
<path d="M104.246 54.8685C104.246 50.4872 104.926 46.6489 106.265 43.3348C107.605 40.0395 109.411 37.2871 111.644 35.0965C113.876 32.9058 116.459 31.2581 119.352 30.1535C122.245 29.0488 125.216 28.4871 128.244 28.4871C135.351 28.4871 140.904 30.6215 144.884 34.8718C148.864 39.122 150.864 45.488 150.864 53.9324C150.864 54.569 150.845 55.2805 150.806 56.0669C150.767 56.8532 150.728 57.5835 150.651 58.2013H116.595C116.925 62.2082 118.381 65.2976 120.983 67.4882C123.585 69.6789 127.351 70.7648 132.302 70.7648C135.195 70.7648 137.855 70.5214 140.263 69.9972C142.671 69.4916 144.554 68.9487 145.952 68.3682L147.525 77.8049C146.865 78.1232 145.952 78.4602 144.806 78.7973C143.661 79.153 142.341 79.4713 140.865 79.7522C139.389 80.033 137.778 80.2764 136.069 80.4636C134.361 80.6509 132.613 80.7445 130.827 80.7445C126.283 80.7445 122.323 80.0892 118.983 78.7973C115.624 77.5053 112.867 75.6891 110.692 73.3674C108.518 71.0457 106.906 68.3121 105.858 65.1852C104.77 62.0584 104.246 58.6133 104.246 54.8685ZM138.923 49.7196C138.923 48.1281 138.69 46.6302 138.224 45.1885C137.758 43.7655 137.079 42.5297 136.205 41.4625C135.312 40.414 134.225 39.5901 132.943 38.991C131.662 38.3918 130.128 38.0922 128.342 38.0922C126.497 38.0922 124.885 38.4293 123.507 39.0846C122.128 39.7586 120.944 40.6199 119.993 41.7059C119.041 42.7919 118.303 44.0276 117.779 45.4132C117.255 46.8174 116.886 48.2404 116.692 49.7008H138.923V49.7196Z" fill="#3C3C3B"/>
<path d="M181.484 80.4834C177.93 80.4272 174.979 80.034 172.649 79.3413C170.319 78.6485 168.455 77.6374 167.057 76.3455C165.679 75.0349 164.708 73.4246 164.145 71.4961C163.582 69.5676 163.31 67.3582 163.31 64.868V7.51771L175.27 5.60791V62.6773C175.27 64.0816 175.387 65.2424 175.62 66.1973C175.853 67.1522 176.261 67.9574 176.863 68.6314C177.464 69.3055 178.26 69.811 179.29 70.148C180.319 70.5038 181.619 70.7659 183.192 70.9531L181.484 80.4834Z" fill="#3C3C3B"/>
<path d="M235.033 29.7249C229.713 48.6545 223.519 65.8052 216.49 81.1586C215.17 84.0233 213.811 86.4573 212.433 88.4982C211.054 90.5391 209.501 92.2055 207.792 93.5536C206.083 94.8829 204.161 95.8565 202.064 96.4557C199.948 97.0549 197.521 97.3544 194.744 97.3544C192.9 97.3544 191.075 97.1672 189.25 96.774C187.444 96.3995 186.065 95.9876 185.153 95.5383L187.327 86.2888C189.716 87.1875 192.065 87.6182 194.376 87.6182C197.482 87.6182 199.909 86.9067 201.676 85.4837C203.423 84.0607 204.977 81.8513 206.297 78.8556C202.53 71.8717 198.899 64.2512 195.424 55.9941C191.948 47.737 188.861 38.9744 186.143 29.7062H198.88C199.54 32.365 200.356 35.2671 201.307 38.3752C202.258 41.4833 203.307 44.6476 204.433 47.8493C205.559 51.0698 206.744 54.2528 208.006 57.4171C209.268 60.6001 210.51 63.5397 211.772 66.2733C213.869 60.6188 215.83 54.6086 217.675 48.2238C219.519 41.8391 221.189 35.6603 222.684 29.6875H235.033V29.7249Z" fill="#3C3C3B"/>
<path d="M262.682 44.9628L273.652 29.7031H286.195L268.837 53.5757C272.468 57.957 275.943 62.3945 279.263 66.8881C282.583 71.363 285.321 75.5946 287.476 79.5452H274.468C273.866 78.3844 273.089 77.0924 272.138 75.6882C271.186 74.2839 270.177 72.8235 269.089 71.3069C268.002 69.7903 266.876 68.2924 265.711 66.8132C264.526 65.3341 263.381 63.9298 262.274 62.6191C259.964 65.203 257.692 68.0677 255.479 71.2132C253.265 74.3401 251.421 77.1299 249.964 79.5452H237.771C238.742 77.6354 239.946 75.6133 241.363 73.4975C242.78 71.3818 244.314 69.2098 245.945 67.0005C247.576 64.7911 249.246 62.5817 250.974 60.3723C252.702 58.1629 254.411 56.0659 256.1 54.0625L238.567 29.7031H251.712L262.682 44.9628Z" fill="#3C3C3B"/>
<path d="M314.348 80.4834C310.795 80.4272 307.843 80.034 305.513 79.3413C303.184 78.6485 301.32 77.6374 299.922 76.3455C298.543 75.0349 297.572 73.4246 297.009 71.4961C296.446 69.5676 296.174 67.3582 296.174 64.868V7.51771L308.135 5.60791V62.6773C308.135 64.0816 308.251 65.2424 308.484 66.1973C308.717 67.1522 309.125 67.9574 309.727 68.6314C310.329 69.3055 311.125 69.811 312.154 70.148C313.183 70.5038 314.484 70.7659 316.056 70.9531L314.348 80.4834Z" fill="#A2C227"/>
<path d="M342.909 28.4705C346.85 28.4705 350.19 28.9385 352.889 29.8934C355.588 30.8484 357.743 32.1777 359.354 33.9003C360.966 35.6229 362.111 37.7012 362.81 40.1352C363.509 42.588 363.84 45.2655 363.84 48.1864V78.3875C361.995 78.7619 359.218 79.23 355.491 79.773C351.763 80.316 347.569 80.5781 342.89 80.5781C339.783 80.5781 336.968 80.2973 334.385 79.7168C331.822 79.1364 329.628 78.2189 327.823 76.9645C326.017 75.6913 324.6 74.0436 323.57 72.0027C322.541 69.9806 322.037 67.4716 322.037 64.4759C322.037 61.6111 322.619 59.1958 323.765 57.2298C324.91 55.2639 326.483 53.6536 328.463 52.4179C330.444 51.1821 332.735 50.3021 335.337 49.7591C337.938 49.2162 340.657 48.954 343.491 48.954C344.812 48.954 346.19 49.0289 347.646 49.1974C349.103 49.3659 350.637 49.6281 352.287 50.0025V48.0927C352.287 46.7634 352.132 45.4902 351.802 44.2919C351.471 43.0936 350.889 42.0263 350.073 41.0901C349.258 40.1727 348.171 39.4612 346.812 38.9556C345.452 38.4501 343.763 38.188 341.725 38.188C338.967 38.188 336.424 38.3752 334.113 38.7684C331.803 39.1429 329.939 39.5922 328.483 40.0978L327.007 30.7735C328.522 30.2679 330.735 29.7624 333.628 29.2568C336.521 28.7326 339.608 28.4705 342.909 28.4705ZM343.899 71.441C347.588 71.441 350.384 71.2538 352.287 70.8606V58.0911C351.627 57.9039 350.675 57.7166 349.433 57.5107C348.171 57.3235 346.792 57.2298 345.278 57.2298C343.957 57.2298 342.618 57.3235 341.278 57.5107C339.919 57.6979 338.715 58.0537 337.628 58.5592C336.54 59.0647 335.667 59.7762 335.007 60.7124C334.346 61.6299 334.016 62.7907 334.016 64.195C334.016 66.9286 334.909 68.8197 336.676 69.8682C338.463 70.9168 340.87 71.441 343.899 71.441Z" fill="#A2C227"/>
<path d="M425 54.6824C425 58.6892 424.399 62.2841 423.175 65.5046C421.952 68.7063 420.205 71.4587 417.933 73.7429C415.661 76.0272 412.904 77.7685 409.681 78.9855C406.458 80.2026 402.808 80.8017 398.711 80.8017C394.77 80.8017 390.983 80.5209 387.391 79.9404C383.799 79.36 380.829 78.7421 378.46 78.0306V7.51771L390.42 5.60791V31.4277C391.799 30.7349 393.507 30.0983 395.507 29.5179C397.507 28.9375 399.74 28.6566 402.167 28.6566C405.798 28.6566 409.04 29.2745 411.895 30.5102C414.749 31.746 417.137 33.506 419.059 35.809C420.962 38.0933 422.437 40.8457 423.447 44.0474C424.496 47.2678 425 50.8066 425 54.6824ZM412.749 54.4951C412.749 49.6083 411.739 45.7325 409.739 42.8678C407.739 40.0031 404.555 38.5801 400.206 38.5801C398.226 38.5801 396.362 38.861 394.634 39.4414C392.886 40.0218 391.488 40.6397 390.44 41.3512V70.0357C391.294 70.2229 392.401 70.4101 393.74 70.5599C395.1 70.7285 396.711 70.8033 398.633 70.8033C403.041 70.8033 406.497 69.3616 409.002 66.4782C411.487 63.5573 412.749 59.5692 412.749 54.4951Z" fill="#A2C227"/>
<defs>
<linearGradient id="paint0_linear_1663_1118" x1="-19.081" y1="95.8583" x2="74.7719" y2="39.668" gradientUnits="userSpaceOnUse">
<stop offset="0.000330688" stop-color="#549D60"/>
<stop offset="1" stop-color="#ADC80F"/>
</linearGradient>
<linearGradient id="paint1_linear_1663_1118" x1="-55.5349" y1="81.7279" x2="182.935" y2="-61.0456" gradientUnits="userSpaceOnUse">
<stop offset="0.000330688" stop-color="#549D60"/>
<stop offset="1" stop-color="#ADC80F"/>
</linearGradient>
<linearGradient id="paint2_linear_1663_1118" x1="-0.392643" y1="72.8906" x2="122.857" y2="-0.899617" gradientUnits="userSpaceOnUse">
<stop offset="0.000330688" stop-color="#549D60"/>
<stop offset="1" stop-color="#ADC80F"/>
</linearGradient>
<linearGradient id="paint3_linear_1663_1118" x1="12.8571" y1="91.738" x2="100.009" y2="39.5596" gradientUnits="userSpaceOnUse">
<stop offset="0.000330688" stop-color="#549D60"/>
<stop offset="1" stop-color="#ADC80F"/>
</linearGradient>
</defs>
</svg>
